# xmcd
#
# Track frame offsets:
#	150
#	21156
#	32872
#	46048
#	65496
#	83072
#	98415
#	113024
#	127366
#	140554
#	168377
#
# Disc length: 2363 seconds
#
# Revision: 3
# Processed by: cddbd v1.5.2PL0 Copyright (c) Steve Scherf et al.
# Submitted via: audiograbber 1.83.01
#
DISCID=8e09390b
DTITLE=Delta Blues Band - Der Montag ist am Schlimmsten
DYEAR=1979
DGENRE=Blues
TTITLE0=Walkin' Blues
TTITLE1=Bundeswehrblues
TTITLE2=Blues an Rita F.
TTITLE3=Hamburg
TTITLE4=N‰gelbrandblues
TTITLE5=Lieber Gott
TTITLE6=Recht auf Kontrolle
TTITLE7=Sommer '75
TTITLE8=Westf‰lische Mutter
TTITLE9=Scheiﬂ Montag
TTITLE10=Mitternachtsblues
EXTD=
EXTT0=
EXTT1=
EXTT2=
EXTT3=
EXTT4=
EXTT5=
EXTT6=
EXTT7=
EXTT8=
EXTT9=
EXTT10=
PLAYORDER=
